PathFileType	4	(X/Y/Z)	/Users/itak/Documents/Research/Walk-IL/dataset/trc/00062_00006.trc
DataRate	CameraRate	NumFrames	NumMarkers	Units	OrigDataRate	OrigDataStartFrame	OrigNumFrames
100.000000	100.000000	4	53	mm	100.000000	346	693
Frame#	Time	RPSI			LPSI			L3			STRN			T10			C7			CLAV			RBAK			LBAK			LSHO			LUPA			LAEL			LAOL			LWTS			LWPS			LFRA			LIFD			LHPS			LHTS			RSHO			RUPA			RAEL			RAOL			RWTS			RWPS			RFRA			RIFD			RHTS			RHPS			RBHD			LFHD			RFHD			LBHD			LHIP			RHIP			RASI			LASI			LKNE			LTHI			LANK			LTIP			LTOE			LMT1			LMT5			LHEE			RKNE			RTHI			RANK			RTIP			RTOE			RMT1			RMT5			RHEE			
		X1	Y1	Z1	X2	Y2	Z2	X3	Y3	Z3	X4	Y4	Z4	X5	Y5	Z5	X6	Y6	Z6	X7	Y7	Z7	X8	Y8	Z8	X9	Y9	Z9	X10	Y10	Z10	X11	Y11	Z11	X12	Y12	Z12	X13	Y13	Z13	X14	Y14	Z14	X15	Y15	Z15	X16	Y16	Z16	X17	Y17	Z17	X18	Y18	Z18	X19	Y19	Z19	X20	Y20	Z20	X21	Y21	Z21	X22	Y22	Z22	X23	Y23	Z23	X24	Y24	Z24	X25	Y25	Z25	X26	Y26	Z26	X27	Y27	Z27	X28	Y28	Z28	X29	Y29	Z29	X30	Y30	Z30	X31	Y31	Z31	X32	Y32	Z32	X33	Y33	Z33	X34	Y34	Z34	X35	Y35	Z35	X36	Y36	Z36	X37	Y37	Z37	X38	Y38	Z38	X39	Y39	Z39	X40	Y40	Z40	X41	Y41	Z41	X42	Y42	Z42	X43	Y43	Z43	X44	Y44	Z44	X45	Y45	Z45	X46	Y46	Z46	X47	Y47	Z47	X48	Y48	Z48	X49	Y49	Z49	X50	Y50	Z50	X51	Y51	Z51	X52	Y52	Z52	X53	Y53	Z53	

347	3.46	817.2369384765625	1005.9619140625	-388.9028625488281	707.4733276367188	989.113037109375	-255.7525329589844	752.5231323242188	1056.480712890625	-317.1347045898438	593.8014526367188	1251.499633789062	-511.862060546875	757.6419067382812	1187.724609375	-296.418212890625	725.9702758789062	1454.01611328125	-349.5797424316406	615.4878540039062	1365.646240234375	-489.7404174804688	817.5111694335938	1313.80615234375	-343.3935546875	660.1661987304688	1422.521728515625	-267.4072570800781	541.0007934570312	1427.805419921875	-305.5466613769531	486.2366943359375	1306.141235351562	-241.9356079101562	446.389892578125	1092.579223632812	-241.946533203125	550.4323120117188	1072.138549804688	-240.9678955078125	436.8669738769531	893.2543334960938	-411.7814025878906	423.7188720703125	858.2009887695312	-336.5520629882812	423.9266967773438	988.9193725585938	-279.4731750488281	437.4839172363281	726.7374877929688	-490.1990661621094	403.2099304199219	791.4471435546875	-389.8419799804688	415.8106384277344	822.5013427734375	-452.6575927734375	823.830078125	1413.879516601562	-506.2911376953125	883.3248901367188	1350.2802734375	-529.3497314453125	968.0703735351562	1105.582397460938	-506.1946716308594	882.3665161132812	1067.528686523438	-472.4102172851562	911.7117919921875	831.4187622070312	-591.40478515625	992.8627319335938	836.5841064453125	-559.456787109375	983.5305786132812	1026.218383789062	-518.0747680664062	935.83740234375	646.0985107421875	-563.0308837890625	921.3092041015625	725.9668579101562	-599.6503295898438	994.6875	740.82421875	-580.2068481445312	717.8037109375	1621.17626953125	-350.795166015625	617.5104370117188	1675.468505859375	-534.8894653320312	563.8569946289062	1677.252075195312	-420.9691772460938	767.71826171875	1613.202026367188	-479.7289123535156	571.9027709960938	919.6763305664062	-257.4506530761719	819.8795776367188	942.1556396484375	-496.5847473144531	716.4398193359375	961.6469116210938	-566.196044921875	536.2882690429688	933.7341918945312	-374.6571655273438	595.54736328125	443.4791564941406	-396.1352233886719	577.2068481445312	588.218505859375	-337.9320678710938	892.6510620117188	150.4781188964844	-128.2155914306641	742.2211303710938	287.6294250488281	-243.6083068847656	879.3027954101562	26.54591369628906	-273.87451171875	921.8599243164062	66.69116973876953	-262.6416015625	858.1671752929688	56.12356567382812	-173.8417358398438	953.5038452148438	220.0428924560547	-139.3332672119141	671.148193359375	523.635986328125	-628.1866455078125	731.3318481445312	786.5542602539062	-595.0941772460938	722.614501953125	30.67543792724609	-656.4871215820312	677.6827392578125	396.7606201171875	-647.7371826171875	517.3279418945312	43.61800003051758	-724.0179443359375	550.4118041992188	46.55400848388672	-661.2278442382812	621.7612915039062	36.82423400878906	-729.364501953125	738.4841918945312	35.53503036499023	-585.2190551757812	
348	3.47	811.6641235351562	1007.16796875	-397.1522521972656	703.8294067382812	989.0643310546875	-262.3680114746094	747.9488525390625	1057.881591796875	-324.6974487304688	585.8319091796875	1252.305419921875	-517.1846313476562	753.0694580078125	1189.057739257812	-304.3776245117188	720.2203369140625	1455.251342773438	-357.2528076171875	607.6677856445312	1366.557250976562	-495.6046752929688	812.1458740234375	1315.22705078125	-352.3897399902344	655.6694946289062	1423.681762695312	-274.0737915039062	535.9757080078125	1428.774536132812	-310.316162109375	482.2865295410156	1307.012573242188	-246.0540313720703	442.8753967285156	1093.219482421875	-245.3216857910156	547.0326538085938	1073.181396484375	-245.6484375	431.0055236816406	890.5441284179688	-411.3788757324219	419.2082214355469	857.2020874023438	-335.163818359375	420.1268005371094	988.8951416015625	-280.7504577636719	430.7876586914062	721.9188842773438	-485.65625	397.9595642089844	789.2111206054688	-386.4636840820312	409.5417785644531	818.6365966796875	-450.2903747558594	815.6622924804688	1415.02978515625	-515.4429321289062	874.8761596679688	1351.498168945312	-539.5814208984375	959.9114379882812	1106.428100585938	-518.3551025390625	874.756103515625	1068.338745117188	-483.18701171875	902.0050048828125	832.7244873046875	-603.8273315429688	983.6104736328125	837.5922241210938	-572.9107666015625	975.1068115234375	1027.098754882812	-530.724853515625	926.2365112304688	647.27587890625	-577.0726318359375	911.302734375	727.3562622070312	-612.9192504882812	984.790283203125	741.59326171875	-594.0693969726562	712.2417602539062	1622.119995117188	-358.145751953125	609.7194213867188	1676.627319335938	-540.9512329101562	557.5016479492188	1678.514770507812	-426.3197021484375	760.4434204101562	1614.0302734375	-487.7454223632812	568.0346069335938	920.0150756835938	-262.8367004394531	813.1508178710938	943.2659301757812	-504.6813354492188	708.9951171875	962.6760864257812	-572.8759765625	531.582275390625	934.6502075195312	-379.1616516113281	577.7344970703125	444.825439453125	-406.5726623535156	564.39453125	589.3284301757812	-346.4441528320312	886.22509765625	161.8819274902344	-140.5224914550781	730.6386108398438	293.8208923339844	-254.9933776855469	867.1348876953125	27.13645553588867	-279.3856506347656	909.8922119140625	72.30789947509766	-272.5137023925781	851.3207397460938	64.72739410400391	-180.1164703369141	945.9625854492188	231.197509765625	-156.65234375	668.0791625976562	523.29296875	-632.5446166992188	726.2498779296875	786.7919921875	-601.2509765625	722.3816528320312	30.63267135620117	-656.599853515625	675.597412109375	396.366455078125	-651.07763671875	516.8431396484375	41.57352066040039	-725.104736328125	550.0103759765625	45.9436149597168	-662.0819091796875	621.6084594726562	36.06011581420898	-730.07373046875	738.2516479492188	35.81680679321289	-585.3667602539062	
349	3.48	806.142578125	1008.336791992188	-405.0740661621094	700.1741943359375	989.0353393554688	-268.7393493652344	743.4093627929688	1059.237915039062	-332.0752563476562	577.813720703125	1253.041259765625	-522.2261962890625	748.6456909179688	1190.433227539062	-312.2211608886719	714.4341430664062	1456.506103515625	-364.8085632324219	599.7466430664062	1367.404052734375	-501.2117614746094	806.822509765625	1316.698974609375	-361.3155822753906	651.2481079101562	1424.796142578125	-280.5777587890625	530.9917602539062	1429.62255859375	-314.7894287109375	478.5320129394531	1307.72021484375	-249.7815551757812	439.4405517578125	1093.764404296875	-248.2594909667969	543.6995239257812	1074.052856445312	-249.9716644287109	425.3477172851562	887.954833984375	-410.5915222167969	414.7708740234375	856.2562255859375	-333.4931640625	416.3970947265625	988.8065795898438	-281.6404418945312	424.5694274902344	717.3921508789062	-480.8469543457031	392.911865234375	787.1184692382812	-382.8843688964844	403.6040954589844	814.9592895507812	-447.5990295410156	807.3154296875	1416.183471679688	-524.5132446289062	866.2408447265625	1352.7314453125	-549.7875366210938	951.5665893554688	1107.253295898438	-530.5555419921875	867.0465698242188	1069.14990234375	-493.8768005371094	891.959228515625	834.0550537109375	-616.15087890625	974.0370483398438	838.5296020507812	-586.296142578125	966.4584350585938	1027.956176757812	-543.3993530273438	915.9998168945312	648.332275390625	-591.1270751953125	900.8607788085938	728.8079223632812	-626.1884765625	974.5809936523438	742.5448608398438	-608.0574951171875	706.58056640625	1622.99365234375	-365.3111267089844	601.83544921875	1677.791015625	-546.7794799804688	551.0750122070312	1679.79052734375	-431.4617004394531	753.0619506835938	1614.826293945312	-495.5608215332031	564.1585083007812	920.4752807617188	-267.97314453125	806.4825439453125	944.216552734375	-512.4992065429688	701.7125854492188	963.6371459960938	-579.3334350585938	526.6653442382812	935.5372314453125	-383.5384216308594	559.853271484375	446.727294921875	-416.6833801269531	551.597900390625	590.8216552734375	-354.519287109375	878.8716430664062	173.0033416748047	-153.8757171630859	718.6558837890625	299.8967895507812	-266.8638610839844	852.6249389648438	29.04118728637695	-285.8450012207031	895.984375	77.93923187255859	-283.4063110351562	842.5015258789062	74.18961334228516	-187.7565612792969	938.0933227539062	241.2215728759766	-174.5988159179688	665.1060791015625	522.9686889648438	-636.615478515625	721.3191528320312	786.9358520507812	-607.0258178710938	722.1787109375	30.64109230041504	-656.6610717773438	673.592529296875	395.9894714355469	-654.1560668945312	516.4610595703125	39.97003173828125	-725.859130859375	549.6677856445312	45.46461486816406	-662.6868286132812	621.4921875	35.55138778686523	-730.5733642578125	738.0501098632812	36.02804183959961	-585.4627685546875	
350	3.49	800.6163330078125	1009.486145019531	-412.6475219726562	696.4232788085938	989.1329956054688	-274.8719177246094	738.87548828125	1060.570678710938	-339.2176513671875	569.7789916992188	1253.745727539062	-527.0261840820312	744.3118286132812	1191.865966796875	-319.9328918457031	708.6090087890625	1457.78759765625	-372.2435607910156	591.7578735351562	1368.2197265625	-506.5776062011719	801.5079956054688	1318.225341796875	-370.1577758789062	646.8775024414062	1425.895263671875	-286.9347534179688	526.0342407226562	1430.393920898438	-319.0210266113281	474.9529418945312	1308.320190429688	-253.1701049804688	436.1407470703125	1094.271240234375	-250.7819213867188	540.474853515625	1074.82275390625	-253.9828033447266	419.9017028808594	885.5104370117188	-409.4022216796875	410.4593505859375	855.3770751953125	-331.50830078125	412.7916259765625	988.7052612304688	-282.1331787109375	418.751953125	713.2311401367188	-475.8394470214844	388.0744323730469	785.1885986328125	-379.0887451171875	397.9546203613281	811.5298461914062	-444.5733947753906	798.814208984375	1417.360717773438	-533.4766235351562	857.4393920898438	1353.996948242188	-559.9391479492188	943.0033569335938	1108.076171875	-542.7838134765625	859.2031860351562	1069.98388671875	-504.4827575683594	881.5775146484375	835.4111328125	-628.34912109375	964.1429443359375	839.4325561523438	-599.6010131835938	957.5503540039062	1028.81640625	-556.0780639648438	905.16552734375	649.26025390625	-605.1139526367188	890.0155639648438	730.3133544921875	-639.3987426757812	964.1264038085938	743.7888793945312	-622.1819458007812	700.8375244140625	1623.815673828125	-372.3043212890625	593.8427124023438	1678.960327148438	-552.3717041015625	544.5798950195312	1681.066040039062	-436.3874816894531	745.5726928710938	1615.614379882812	-503.1739196777344	560.1968994140625	921.1336669921875	-272.8914489746094	799.8839111328125	945.0470581054688	-519.9749145507812	694.5931396484375	964.547119140625	-585.588623046875	521.3135986328125	936.4771728515625	-387.8968811035156	541.9175415039062	449.1876831054688	-426.4389343261719	538.791015625	592.7175903320312	-362.2098693847656	870.55078125	183.4997863769531	-168.1730651855469	706.2970581054688	305.7550354003906	-279.0910339355469	835.9871215820312	32.36929702758789	-293.4295654296875	880.3546142578125	83.4586181640625	-295.26123046875	831.7274780273438	84.08037567138672	-196.8324432373047	929.8394775390625	249.93505859375	-193.0403594970703	662.1223754882812	522.6749877929688	-640.4367065429688	716.4149780273438	787.0304565429688	-612.4463500976562	722.0162353515625	30.69370651245117	-656.68798828125	671.5642700195312	395.6321411132812	-657.000732421875	516.176025390625	38.78134918212891	-726.3428344726562	549.382568359375	45.10140991210938	-663.0861206054688	621.40869140625	35.25205612182617	-730.8970336914062	737.8727416992188	36.17244338989258	-585.510498046875	
